<svg xmlns="http://www.w3.org/2000/svg" width="2500" height="1686">
  <rect width="2500" height="1686" fill="#FFFFFF"/>
  <!-- Row 1 -->
  <rect x="0" y="0" width="833" height="843" fill="#FF6B6B" rx="0"/>
  <text x="416" y="400" text-anchor="middle" fill="white" font-size="70" font-family="sans-serif" font-weight="bold">Sender</text>
  <text x="416" y="480" text-anchor="middle" fill="white" font-size="30" font-family="sans-serif">ICON</text>

  <rect x="833" y="0" width="834" height="843" fill="#4ECDC4" rx="0"/>
  <text x="1250" y="400" text-anchor="middle" fill="white" font-size="70" font-family="sans-serif" font-weight="bold">送信方法</text>
  <text x="1250" y="480" text-anchor="middle" fill="white" font-size="30" font-family="sans-serif">SEND</text>

  <rect x="1667" y="0" width="833" height="843" fill="#45B7D1" rx="0"/>
  <text x="2083" y="380" text-anchor="middle" fill="white" font-size="60" font-family="sans-serif" font-weight="bold">プロ</text>
  <text x="2083" y="460" text-anchor="middle" fill="white" font-size="60" font-family="sans-serif" font-weight="bold">フィール</text>
  <text x="2083" y="540" text-anchor="middle" fill="white" font-size="30" font-family="sans-serif">USER</text>

  <!-- Row 2 -->
  <rect x="0" y="843" width="833" height="843" fill="#96CEB4" rx="0"/>
  <text x="416" y="1200" text-anchor="middle" fill="white" font-size="55" font-family="sans-serif" font-weight="bold">画像</text>
  <text x="416" y="1280" text-anchor="middle" fill="white" font-size="55" font-family="sans-serif" font-weight="bold">カルーセル</text>
  <text x="416" y="1360" text-anchor="middle" fill="white" font-size="30" font-family="sans-serif">IMG</text>

  <rect x="833" y="843" width="834" height="843" fill="#FFEAA7" rx="0"/>
  <text x="1250" y="1243" text-anchor="middle" fill="#333333" font-size="80" font-family="sans-serif" font-weight="bold">ヘルプ</text>
  <text x="1250" y="1323" text-anchor="middle" fill="#333333" font-size="40" font-family="sans-serif">HELP</text>

  <rect x="1667" y="843" width="833" height="843" fill="#06C755" rx="0"/>
  <text x="2083" y="1200" text-anchor="middle" fill="white" font-size="60" font-family="sans-serif" font-weight="bold">Tab A</text>
  <text x="2083" y="1280" text-anchor="middle" fill="white" font-size="40" font-family="sans-serif">に戻る</text>
  <text x="2083" y="1360" text-anchor="middle" fill="white" font-size="60" font-family="sans-serif">&lt;-</text>

  <!-- Grid lines -->
  <line x1="833" y1="0" x2="833" y2="1686" stroke="white" stroke-width="4"/>
  <line x1="1667" y1="0" x2="1667" y2="1686" stroke="white" stroke-width="4"/>
  <line x1="0" y1="843" x2="2500" y2="843" stroke="white" stroke-width="4"/>
</svg>