<svg xmlns="http://www.w3.org/2000/svg" width="2500" height="1686">
  <rect width="2500" height="1686" fill="#FFFFFF"/>
  <!-- Row 1 -->
  <rect x="0" y="0" width="833" height="843" fill="#06C755" rx="0"/>
  <text x="416" y="400" text-anchor="middle" fill="white" font-size="80" font-family="sans-serif" font-weight="bold">テキスト</text>
  <text x="416" y="480" text-anchor="middle" fill="white" font-size="40" font-family="sans-serif">TEXT</text>

  <rect x="833" y="0" width="834" height="843" fill="#00B900" rx="0"/>
  <text x="1250" y="400" text-anchor="middle" fill="white" font-size="80" font-family="sans-serif" font-weight="bold">Flex</text>
  <text x="1250" y="480" text-anchor="middle" fill="white" font-size="40" font-family="sans-serif">FLEX</text>

  <rect x="1667" y="0" width="833" height="843" fill="#009900" rx="0"/>
  <text x="2083" y="400" text-anchor="middle" fill="white" font-size="70" font-family="sans-serif" font-weight="bold">テンプレート</text>
  <text x="2083" y="480" text-anchor="middle" fill="white" font-size="40" font-family="sans-serif">TPL</text>

  <!-- Row 2 -->
  <rect x="0" y="843" width="833" height="843" fill="#4DC870" rx="0"/>
  <text x="416" y="1243" text-anchor="middle" fill="white" font-size="80" font-family="sans-serif" font-weight="bold">スタンプ</text>
  <text x="416" y="1323" text-anchor="middle" fill="white" font-size="40" font-family="sans-serif">:)</text>

  <rect x="833" y="843" width="834" height="843" fill="#3CB371" rx="0"/>
  <text x="1250" y="1200" text-anchor="middle" fill="white" font-size="60" font-family="sans-serif" font-weight="bold">クイック</text>
  <text x="1250" y="1280" text-anchor="middle" fill="white" font-size="60" font-family="sans-serif" font-weight="bold">リプライ</text>
  <text x="1250" y="1360" text-anchor="middle" fill="white" font-size="40" font-family="sans-serif">QR</text>

  <rect x="1667" y="843" width="833" height="843" fill="#2E8B57" rx="0"/>
  <text x="2083" y="1200" text-anchor="middle" fill="white" font-size="60" font-family="sans-serif" font-weight="bold">Tab B</text>
  <text x="2083" y="1280" text-anchor="middle" fill="white" font-size="40" font-family="sans-serif">その他 →</text>

  <!-- Grid lines -->
  <line x1="833" y1="0" x2="833" y2="1686" stroke="white" stroke-width="4"/>
  <line x1="1667" y1="0" x2="1667" y2="1686" stroke="white" stroke-width="4"/>
  <line x1="0" y1="843" x2="2500" y2="843" stroke="white" stroke-width="4"/>
</svg>